<svg xmlns="http://www.w3.org/2000/svg" viewBox="0 0 333.86 333.86"><defs><style>.cls-1{fill:#0e9a48;}.cls-2{fill:none;}</style></defs><g id="Layer_2" data-name="Layer 2"><g id="PRINT"><path class="cls-1" d="M274.3,135.43v0l0,0ZM58.76,124.93c0,.56,0,1.13,0,1.69l.93-.74C59.38,125.57,59.07,125.24,58.76,124.93Zm215.54,10.5v0l0,0ZM58.76,124.93c0,.56,0,1.13,0,1.69l.93-.74C59.38,125.57,59.07,125.24,58.76,124.93Zm215.54,10.5v0l0,0ZM58.76,124.93c0,.56,0,1.13,0,1.69l.93-.74C59.38,125.57,59.07,125.24,58.76,124.93Zm215.54,10.5v0l0,0ZM58.76,124.93c0,.56,0,1.13,0,1.69l.93-.74C59.38,125.57,59.07,125.24,58.76,124.93Zm215.54,10.5v0l0,0ZM58.76,124.93c0,.56,0,1.13,0,1.69l.93-.74C59.38,125.57,59.07,125.24,58.76,124.93Zm215.54,10.5v0l0,0ZM58.76,124.93c0,.56,0,1.13,0,1.69l.93-.74C59.38,125.57,59.07,125.24,58.76,124.93Zm215.54,10.5v0l0,0ZM58.76,124.93c0,.56,0,1.13,0,1.69l.93-.74C59.38,125.57,59.07,125.24,58.76,124.93Zm215.54,10.5v0l0,0ZM58.76,124.93c0,.56,0,1.13,0,1.69l.93-.74C59.38,125.57,59.07,125.24,58.76,124.93Zm215.54,10.5v0l0,0ZM58.76,124.93c0,.56,0,1.13,0,1.69l.93-.74C59.38,125.57,59.07,125.24,58.76,124.93Zm215.54,10.5v0l0,0ZM58.76,124.93c0,.56,0,1.13,0,1.69l.93-.74C59.38,125.57,59.07,125.24,58.76,124.93Zm215.54,10.5v0l0,0ZM58.76,124.93c0,.56,0,1.13,0,1.69l.93-.74C59.38,125.57,59.07,125.24,58.76,124.93Z"/><path class="cls-1" d="M166.93,36.11C97,36.11,40.36,65.18,40.36,101.05a34.45,34.45,0,0,0,1.55,10.16,39.13,39.13,0,0,0,4.3,9.41c.62,1,1.3,2,2,3s1.66,2.23,2.59,3.32c1.05,1.24,2.18,2.48,3.39,3.68,1.44,1.43,3,2.85,4.61,4.22l.82.67q3,2.49,6.51,4.82c2.16,1.46,4.42,2.86,6.81,4.21,2.86,1.64,5.91,3.21,9.1,4.69,2.84,1.33,5.82,2.59,8.9,3.77,21.15,8.15,47.45,13,76,13s54.93-4.85,76.11-13q4.65-1.81,9-3.81c3.17-1.48,6.18-3,9-4.67q3.12-1.78,6-3.67c.28-.18.57-.36.84-.56q3.42-2.31,6.44-4.8l0,0v0h0a69.11,69.11,0,0,0,5.41-4.87c1.19-1.2,2.3-2.4,3.34-3.64s1.9-2.32,2.74-3.51c.65-.93,1.29-1.88,1.86-2.82a40.75,40.75,0,0,0,4.28-9.34,34.61,34.61,0,0,0,1.55-10.2C293.5,65.18,236.84,36.11,166.93,36.11Zm119.28,64.94a28.1,28.1,0,0,1-2,10.36,29.51,29.51,0,0,1-1.38,3,38.4,38.4,0,0,1-4.09,6.33,49.7,49.7,0,0,1-4.45,5,65.14,65.14,0,0,1-5.54,4.88q-.9.72-1.86,1.41c-1.81,1.35-3.74,2.64-5.77,3.9-2.33,1.46-4.79,2.86-7.4,4.21q-5,2.58-10.58,4.86c-3.26,1.33-6.67,2.59-10.21,3.75-19,6.26-41.79,9.94-66,9.94s-46.8-3.66-65.8-9.88c-3.52-1.15-6.92-2.39-10.16-3.72-3.76-1.52-7.33-3.16-10.67-4.89-2.57-1.31-5-2.7-7.35-4.16-2.1-1.28-4.09-2.63-6-4-.6-.42-1.16-.88-1.73-1.31a63.69,63.69,0,0,1-5.56-4.87l-.93.74c0-.56,0-1.13,0-1.69-1.28-1.32-2.46-2.67-3.54-4a39.24,39.24,0,0,1-4.12-6.35,32.92,32.92,0,0,1-1.41-3.1,28,28,0,0,1-2-10.4v-.11c.13-31.18,54.7-57.54,119.28-57.54s119,26.28,119.28,57.43Z"/><path class="cls-1" d="M267,156.32c-.35.29-.69.56-1,.83-2.06,1.66-4.16,3.2-6.26,4.66a118.53,118.53,0,0,1-29.49,14.73,135.06,135.06,0,0,1-14,4c-16.58,3.76-32,4.23-43.48,4.23-2.08,0-4,0-5.84,0-9.87-.07-27.52-.29-47.24-4.65-4.74-1-9.61-2.35-14.51-3.94a126.75,126.75,0,0,1-30.59-14.42c-2.17-1.43-4.32-2.92-6.42-4.53-.64-.49-1.28-1-1.9-1.47l0-6.42,0-3.19c.66.6,1.31,1.18,2,1.73,2.19,1.88,4.43,3.63,6.71,5.27s4.5,3.12,6.82,4.5a128.21,128.21,0,0,0,37.73,15,179.79,179.79,0,0,0,23.66,3.79c9.85.93,18.2,1,23.85,1,1.79,0,3.73,0,5.79,0,6.45,0,13.36-.19,20.53-.81A156,156,0,0,0,216.39,173a115.73,115.73,0,0,0,36.31-15.24c2.25-1.44,4.45-3,6.64-4.67,1.39-1,2.76-2.12,4.11-3.25l2.46-2.06,1.11-.93v1.77Z"/><path class="cls-1" d="M58.83,134.87c0,.47,0,1,0,1.44l.8-.77Zm208.3,58.23v.07a.09.09,0,0,0,.06,0Z"/><path class="cls-1" d="M267.13,193.1v.07c-2,1.66-4.05,3.21-6.11,4.67-31.13,22.13-66.57,23.8-88.25,23.8-2.08,0-4,0-5.84,0-17.45-.15-59.37-.69-93.76-24-2.14-1.44-4.25-3-6.33-4.61l-.29-.22-.08-9.59q3.45,3.06,7.06,5.74,3.34,2.49,6.79,4.65c32.19,20.28,70.47,20.58,86.66,20.7,1.81,0,3.73,0,5.79,0,24,0,54.18-2.5,81.19-20.52,2.23-1.46,4.42-3,6.59-4.74,1-.75,1.93-1.53,2.9-2.34,1.22-1,2.44-2,3.66-3.08Z"/><path class="cls-1" d="M267.17,202.88,263.45,206c-29.24,24.45-63.82,27.59-90.68,27.59-2.06,0-4,0-5.79,0-18.56-.14-66.2-.52-100.36-31l.07,9.57c35.42,27.92,81.67,28.54,100.24,28.69,1.81,0,3.76,0,5.84,0,23.14,0,61.9-1.92,94.42-28.53Z"/><path class="cls-1" d="M293.5,232.79c0,35.87-56.66,65-126.57,65s-126.57-29.09-126.57-65c0-7.55,2.51-14.81,7.15-21.56a50,50,0,0,1,4.67-5.87c1-1.15,2.15-2.28,3.31-3.38s2.47-2.28,3.8-3.37c0,2.41,0,4.8.05,7.2,0,.84,0,1.68,0,2.52-.86.84-1.68,1.72-2.46,2.59a45.76,45.76,0,0,0-4.45,6,30.05,30.05,0,0,0-4.8,15.87c0,31.26,54.63,57.67,119.28,57.67s119.28-26.41,119.28-57.67a29.77,29.77,0,0,0-4.45-15.29,41.79,41.79,0,0,0-4.32-6c-.93-1.1-1.92-2.16-3-3.2v-2.07c0-2.58,0-5.13,0-7.7q2.28,1.86,4.31,3.83c1.18,1.11,2.28,2.26,3.32,3.43a51.83,51.83,0,0,1,4.67,6A37.53,37.53,0,0,1,293.5,232.79Z"/><path class="cls-1" d="M267.2,221c-1.24,1.06-2.5,2.12-3.75,3.16-29.24,24.45-63.82,27.59-90.68,27.59-2.06,0-4,0-5.79,0-18.54-.14-66.07-.53-100.23-30.86l.07,9.45v.11c35.4,27.83,81.56,28.45,100.11,28.6,1.81,0,3.76,0,5.84,0,23.12,0,61.9-1.9,94.4-28.51,0-.53.05-1,.05-1.55Z"/><path class="cls-1" d="M267.09,174a115.57,115.57,0,0,1-15.39,10.6q-4.15,2.37-8.35,4.36c-26.16,12.36-52.93,13.47-70.58,13.47h-5.84c-14.44-.11-45.67-.52-75.49-13.85q-4.35-1.93-8.62-4.27A114.84,114.84,0,0,1,66.4,173.48l0-6.2v-3.41c.69.63,1.4,1.25,2.11,1.86a108.14,108.14,0,0,0,23.11,14.88q5,2.38,10,4.27c26.32,9.88,52.67,10.1,65.38,10.21l5.79,0c18.09,0,39.66-1.42,60.75-9.83a102.55,102.55,0,0,0,9.63-4.34,108.34,108.34,0,0,0,20.3-13.43l2.17-1.8c.47-.42,1-.82,1.44-1.22l0,2.28Z"/><path class="cls-1" d="M201.36,95.05c-4.85-7.37-18.44-12.65-34.43-12.65s-29.64,5.32-34.47,12.71a10.49,10.49,0,0,0-1.92,5.94,9,9,0,0,0,.19,1.86c.74,3.91,3.83,7.44,8.51,10.25A46.44,46.44,0,0,0,155,118.69a69.41,69.41,0,0,0,23.94,0,46.28,46.28,0,0,0,15.74-5.54c4.69-2.83,7.77-6.39,8.5-10.29a10,10,0,0,0,.17-1.81A10.59,10.59,0,0,0,201.36,95.05ZM196,101.51c-.57,3-6.55,7.73-17.31,9.83a59.65,59.65,0,0,1-11.73,1.09,60.67,60.67,0,0,1-11.67-1.07c-10.73-2.08-16.73-6.77-17.35-9.8a1.84,1.84,0,0,1-.07-.51c0-2.26,3.54-5.78,10.25-8.29a53.71,53.71,0,0,1,18.84-3.07,54,54,0,0,1,18.79,3c6.74,2.51,10.3,6.05,10.3,8.31A2.4,2.4,0,0,1,196,101.51Z"/><path class="cls-1" d="M274.52,228.92a29.34,29.34,0,0,1-6.29,18.4,1.09,1.09,0,0,1-.1.11c-7.29,9.07-18.25,17.27-41.27,24.26-12.31,3.74-32.19,8.37-60,8.37-.35,0-.7,0-1,0,0,0-48.1-.2-84.76-19.22a44.88,44.88,0,0,1-15.33-12.27c-.08-.1-.15-.2-.24-.3a29.29,29.29,0,0,1-6-17.67l-.06-6.51c0-3.48,0-7-.07-10.45,0-1.77,0-3.52,0-5.29,0-.84,0-1.68,0-2.52,0-2.4,0-4.79-.05-7.2,0-1.09,0-2.17,0-3.26,0-3,0-5.93-.07-8.91,0-3.5,0-7-.08-10.48,0-.86,0-1.7,0-2.56,0-2.11,0-4.23,0-6.34,0-1.1,0-2.19,0-3.29,0-2.38,0-4.79,0-7.18,0-.38,0-.79,0-1.17,0-2,0-4.1,0-6.14,0-1.17,0-2.36,0-3.52,0-2.34,0-4.67,0-7,0-.82,0-1.62,0-2.44l.8-.77q3,2.49,6.51,4.82l.06,5.71,0,3.19,0,6.42,0,2.71.06,5.48v3.41l0,6.2.07,9.74.08,9.59v.4l.07,8.87a2.92,2.92,0,0,0-.29.23,2.51,2.51,0,0,0,.29.28l.07,9.57.06,8.66.07,9.45v.26a22,22,0,0,0,4.47,13.27l.18.24a37.88,37.88,0,0,0,13,10.31c34.6,18,81,18.4,81.43,18.4l1,0c20.79,0,40.27-2.72,57.88-8.07,23.46-7.11,32.23-15,37.7-21.84h0l.07-.1a21.92,21.92,0,0,0,4.64-12.27c0-.53.05-1,.05-1.55l0-8v-8.59l0-9.48c.18-.15.34-.31.53-.46l-.55-.4,0-8.85a.09.09,0,0,0,.06,0l-.06,0,0-9.43,0-9.7v-7.2l0-2.28,0-6.64v-1.53l0-7.7v-1.77l0-6c.28-.18.57-.36.84-.56q3.42-2.31,6.44-4.8c0,1.64,0,3.26,0,4.91s0,3.11,0,4.66v5.15c0,1.49,0,3,0,4.5,0,1.11,0,2.21,0,3.32,0,1.73,0,3.45,0,5.18,0,1.55,0,3.08,0,4.63s0,3.36,0,5c0,1.44,0,2.9,0,4.34,0,3.28,0,6.55,0,9.83,0,3.12,0,6.25,0,9.37v2.12c0,2.57,0,5.12,0,7.7v2.07c0,2.07,0,4.11,0,6.17,0,3.28,0,6.56,0,9.85C274.52,225.84,274.52,227.39,274.52,228.92Z"/><rect class="cls-2" width="333.86" height="333.86"/></g></g></svg>