<svg xmlns="http://www.w3.org/2000/svg" viewBox="0 0 333.86 333.86"><defs><style>.cls-1{fill:none;}.cls-2{fill:#0e9a48;}</style></defs><g id="Layer_2" data-name="Layer 2"><g id="PRINT"><rect class="cls-1" width="333.86" height="333.86"/><path class="cls-2" d="M286.43,146.71V285.39c0,.34,0,.69,0,1a19.94,19.94,0,0,1-19.9,18.89h-.82a19.91,19.91,0,0,1-19.94-19.91V186a17.63,17.63,0,0,0-11.45-16.5.33.33,0,0,1-.13,0,18.69,18.69,0,0,0-7.18-1.42H207.37V48.76A39.8,39.8,0,0,0,167.56,9H49A39.8,39.8,0,0,0,9.21,48.76v266.4A9.74,9.74,0,0,0,19,324.89H197.62a9.74,9.74,0,0,0,9.75-9.73V185.93c8.28-.24,10.1.35,10.1.35,2.57.83,5.75,2.83,8.69,7.73v91.38c0,.34,0,.69,0,1a39.48,39.48,0,0,0,30.13,37.35,39.05,39.05,0,0,0,9.38,1.13h.82A39.5,39.5,0,0,0,306,285.39V146.71ZM187.78,305.3H28.8V48.76A20.22,20.22,0,0,1,49,28.56H167.56a20.22,20.22,0,0,1,20.22,20.2Z"/><path class="cls-2" d="M324.65,87.57V109.4a28.32,28.32,0,0,1-28.31,28.34h-1.51a28.33,28.33,0,0,1-28.32-28.34V87.57h10V53.07a4.31,4.31,0,1,1,8.62,0v34.5H306V53.07a4.31,4.31,0,1,1,8.62,0v34.5Z"/><path class="cls-2" d="M147.47,69.36V98.3H68.61V69.36h78.86M169.24,58.5a10.91,10.91,0,0,0-10.91-10.91H57.75A10.91,10.91,0,0,0,46.84,58.5v50.66a10.91,10.91,0,0,0,10.91,10.91H158.33a10.91,10.91,0,0,0,10.91-10.91V58.5Z"/><polygon class="cls-2" points="127.76 147.72 77.84 216.84 96.81 216.84 87.58 275.74 139.49 206.36 117.27 206.36 127.76 147.72"/></g></g></svg>