<svg xmlns="http://www.w3.org/2000/svg" viewBox="0 0 333.86 333.86"><defs><style>.cls-1{fill:#0e9a48;}.cls-2{fill:none;}</style></defs><g id="Layer_2" data-name="Layer 2"><g id="PRINT"><path class="cls-1" d="M274.56,263.94V210.55H257V175.76H244.68V88.45H234.5V7h-1.27V4.71H227.4V7h-1.24V88.45h-9.51V7h-1.24V4.71h-5.84V7h-1.23V88.45h-8.86V7h-1.24V4.71H192.4V7h-1.26V88.45h-9.48V47.59H150V88.45h-9.42V7h-1.24V4.71h-5.83V7h-1.27V88.45h-8.83V7H122.1V4.71h-5.81V7H115V88.45h-9.48V7h-1.26V4.71H98.44V7H97.2V88.45H87v87.31H76.85v34.79H59.28v53.39H46.41v61.83a3.39,3.39,0,0,0,6.78,0v-55H280.67v55a3.39,3.39,0,0,0,6.78,0V263.94ZM181.66,95.23H237.9v80.53H181.66ZM156.73,54.38h18.14V175.76H156.73Zm-63,40.85H150v80.53H93.75ZM81.92,182.55h170v28h-170Zm186.6,81.39H65.34v-46.6H268.52Z"/><rect class="cls-2" width="333.86" height="333.86"/></g></g></svg>