<svg xmlns="http://www.w3.org/2000/svg" viewBox="0 0 333.86 333.86"><defs><style>.cls-1{fill:none;}.cls-2{fill:#0e9a48;}</style></defs><g id="Layer_2" data-name="Layer 2"><g id="PRINT"><rect class="cls-1" width="333.86" height="333.86"/><path class="cls-2" d="M166.93,38.93A16,16,0,0,1,181,47L316.57,281.83a16.23,16.23,0,0,1-14.05,24.34H31.34a16.23,16.23,0,0,1-14-24.34L152.88,47a16.06,16.06,0,0,1,14.05-8.11m0-11a27,27,0,0,0-23.57,13.6L7.78,276.33a27.21,27.21,0,0,0,23.56,40.82H302.52a27.21,27.21,0,0,0,23.56-40.82L190.5,41.54a27,27,0,0,0-23.57-13.6Z"/><path class="cls-2" d="M167.6,77.17,285.84,279.53H49.37L167.6,77.17m0-17.43-7.59,13L41.78,275.1l-7.73,13.22h267.1l-7.72-13.22L175.19,72.73l-7.59-13Z"/><circle class="cls-2" cx="167.6" cy="241.58" r="8.57"/><rect class="cls-2" x="162.06" y="134.51" width="11.08" height="77.95" rx="2.52"/></g></g></svg>