<svg xmlns="http://www.w3.org/2000/svg" viewBox="0 0 335.69 333.86"><defs><style>.cls-1{fill:none;}.cls-2{fill:#0e9a48;}</style></defs><g id="Layer_2" data-name="Layer 2"><g id="PRINT"><rect class="cls-1" x="1.83" width="333.86" height="333.86"/><path class="cls-2" d="M0,333.57H333.29V.29Zm326.21-239H293v5.66h33.23v40.58H306.65v5.69h19.56V187H293v5.67h33.23v40.58H306.65V239h19.56v40.58H293v5.67h33.23v41.26H17.11L326.21,17.37Z"/><path class="cls-2" d="M166.65,258.89h93.06v-92Zm86-7.08H183.88l68.76-67.93Z"/><path class="cls-2" d="M193.06,11.37l-25.95,26L24.92,179.54q-6.37,24.27-12.74,48.6Q36.1,221.39,60,214.6L228.15,46.46Zm25.08,35.09-16,15.95L177.11,37.35l15.95-16ZM81,183.64,56.3,208.3,22.16,218q4.56-17.4,9.13-34.78L167.11,47.36l25.06,25Z"/></g></g></svg>