<svg xmlns="http://www.w3.org/2000/svg" viewBox="0 0 333.86 333.86"><defs><style>.cls-1{fill:#0e9a48;}.cls-2{fill:none;}</style></defs><g id="Layer_2" data-name="Layer 2"><g id="PRINT"><path class="cls-1" d="M315.84,220.91a4.49,4.49,0,0,1-2.4-3.84q-.13-8.37-.68-17.39c-.42-6.26-1-12.28-1.61-18a8.55,8.55,0,0,0-1.8-4.37c-2.11-2.7-4.21-5.37-6.31-8.07a12.94,12.94,0,0,1-2.25-4.42,115.61,115.61,0,0,0-18.07-37.51c-26.87-36.62-67.4-45.15-80.23-47.18a140,140,0,0,0-22.83-2A105.21,105.21,0,0,0,133.41,88.5c-27.76,13.45-42.13,35.41-48,46.25a20.51,20.51,0,0,1-5.14,6.11q-4.84,3.9-9.68,7.84A9.44,9.44,0,0,0,67,155.63a217.4,217.4,0,0,1-3,28.57c-2.63,15.09-5.49,21.82-9.93,27.58l-.07.09a30.39,30.39,0,0,1-11.75,9.18c-4.49,2-8.33,3.36-11.28,4.32-9.6,3.16-14.57,3.48-19.71,8.37-1.74,1.65-5.74,5.49-5.22,10.25.5,4.34,4.48,7,5.79,7.86,3.06,2.09,6.22,2.68,14.45,2.68,1.4,0,2.95,0,4.69,0,2.79-.05,6-.14,9.59-.28A96,96,0,0,0,52.79,253a509.29,509.29,0,0,1,79.66-6.89l3.94,0a508.35,508.35,0,0,1,78,6,308.88,308.88,0,0,0,47.36,3.71h1a345.67,345.67,0,0,0,35.29-1.92h.19c18.48,0,30.07-11.07,29.55-19.58C327.42,227.72,319.82,223,315.84,220.91Zm.71,17.43c-3.91,4-10.75,6.38-18.27,6.38h-.64l-.51,0a328.79,328.79,0,0,1-34.37,1.88h-1a303.47,303.47,0,0,1-46-3.59,518.7,518.7,0,0,0-79.41-6.13l-4,0a518.88,518.88,0,0,0-81.1,7,91.4,91.4,0,0,1-11.07,1.1c-3.11.14-6.27.23-9.4.28-1.67,0-3.16,0-4.51,0-7.7,0-8.62-.62-9.37-1.12A8.77,8.77,0,0,1,15.3,243a13.65,13.65,0,0,1,2.29-2.61c2.15-2,4-2.63,9.58-4.25,1.95-.55,4.14-1.19,6.66-2A129.51,129.51,0,0,0,46,229.42a39.23,39.23,0,0,0,15.3-12l.09-.09c5.84-7.57,9-16.12,11.69-31.58A225.61,225.61,0,0,0,76.19,156a.24.24,0,0,1,.11-.19l6.93-5.6L86,148a29.9,29.9,0,0,0,7.41-8.85c5.83-10.71,19.28-30.42,44-42.39a96.13,96.13,0,0,1,42.24-9.51A129.78,129.78,0,0,1,201,89.14c14.44,2.29,50.55,11.16,74.32,43.57A106.24,106.24,0,0,1,292,167.25a21.2,21.2,0,0,0,3.84,7.59l6.24,8c.67,5.78,1.17,11.64,1.54,17.42.36,5.63.59,11.35.71,17a13.52,13.52,0,0,0,7.32,11.8c5.07,2.63,6.95,5.21,7.06,5.83C318.7,235.14,318.36,236.51,316.55,238.34Z"/><path class="cls-1" d="M279.2,169.29,271,173.43a113.12,113.12,0,0,0-37.54-42.59C222.41,123.4,203.84,111,178.72,113c-29.32,2.38-48,22.64-54.71,31.24l-7.22-5.6c7.43-9.56,28.27-32.09,61.2-34.77,28.25-2.28,49.32,11.78,60.59,19.35A122,122,0,0,1,279.2,169.29Z"/><path class="cls-1" d="M162.1,158a7.61,7.61,0,1,1-7.6-7.62A7.61,7.61,0,0,1,162.1,158Z"/><path class="cls-1" d="M193.82,158a7.61,7.61,0,1,1-7.59-7.62A7.61,7.61,0,0,1,193.82,158Z"/><path class="cls-1" d="M227.65,158a7.61,7.61,0,1,1-7.6-7.62A7.61,7.61,0,0,1,227.65,158Z"/><rect class="cls-2" width="333.86" height="333.86"/></g></g></svg>