<svg xmlns="http://www.w3.org/2000/svg" viewBox="0 0 333.86 333.86"><defs><style>.cls-1{fill:none;}.cls-2{fill:#0e9a48;}</style></defs><g id="Layer_2" data-name="Layer 2"><g id="PRINT"><rect class="cls-1" width="333.86" height="333.86"/><path class="cls-2" d="M300.78,179.44H275.93V135.28a18.59,18.59,0,0,0-18.57-18.58l-33.5-.85h0c-3.84-.95-7.77-.56-11.56-.56a44.54,44.54,0,0,0-10.06,1.15c-15.87,3.73-24.72,15.3-30.57,22.95-11,14.46-17.76,32.55-19.46,52.3v.18l-1,16.11-1.06,17.41,0,9.7h0v19.22H316.39V195.05A15.62,15.62,0,0,0,300.78,179.44Zm-69.56-55.3h26.14a11.13,11.13,0,0,1,11.14,11.14v43.41H253v25.46l-21.82,5Zm-71.59,68.19c1-11.32,4.4-30.69,18-48.42,5.89-7.7,13.34-17.17,26.37-20.23a36.57,36.57,0,0,1,8.35-1,40.86,40.86,0,0,1,10.51,1.41v87.38l-65.23,14.34Q158.6,209.08,159.63,192.33ZM309,246.88H157.58V236l103.65-23.18V186.87h39.55a8.18,8.18,0,0,1,8.18,8.18Z"/><path class="cls-2" d="M304,281.88a22.27,22.27,0,0,1,22.27,22.27h0A22.28,22.28,0,0,1,304,326.43H150.76a22.28,22.28,0,0,1-22.27-22.28h0a22.27,22.27,0,0,1,22.27-22.27H304m0-7.44H150.76a29.71,29.71,0,1,0,0,59.42H304a29.71,29.71,0,1,0,0-59.42Z"/><circle class="cls-2" cx="155.31" cy="304.15" r="9.43"/><circle class="cls-2" cx="191.79" cy="304.15" r="9.43"/><circle class="cls-2" cx="227.36" cy="304.15" r="9.43"/><circle class="cls-2" cx="263.16" cy="304.15" r="9.43"/><circle class="cls-2" cx="299.52" cy="304.15" r="9.43"/><path class="cls-2" d="M154.62,126.48h0a3.07,3.07,0,0,1-4.13-1.31l-34.08-65.4L31.26,182.14,28.56,186l-5-3.51,2.17-3.1L113.2,53.63l4-5.69,3.21,6.15,35.56,68.25A3.07,3.07,0,0,1,154.62,126.48Z"/><path class="cls-2" d="M116.69,4.73,113.08.28,112.6,0l-.44.37-3,4.88L8.22,171.91h0a80.78,80.78,0,0,1-2.42,8.81,107.77,107.77,0,0,0-3.08,10.94A106.35,106.35,0,0,0,.19,214.05v1.28l.52,1.16a50.48,50.48,0,0,0,12.17,17c3.51,3.21,10,9.19,20.65,11.17a36.87,36.87,0,0,0,6.81.62,39.2,39.2,0,0,0,14.54-2.81l.45-.19.43-.25c3.88-2.34,7.79-4.79,11.6-7.27a384.85,384.85,0,0,0,34.45-25.28l11.13-9.14a.79.79,0,0,0-.49-1.4H70.14c-11.6-4.39-23.15-9.29-34.35-14.6-1.52-.72-3-1.45-4.53-2.19L28.56,186l-5-3.51,2.17-3.1c-3.45-1.74-6.87-3.53-10.26-5.34l-1-.55L113.3,10.32l73.45,90.31a3.06,3.06,0,0,0,4.31.45h0a3.06,3.06,0,0,0,.45-4.31Zm-83.44,185c12.43,5.89,24.41,10.9,35.8,15.17H98A380.93,380.93,0,0,1,64.1,229.77q-5.76,3.76-11.42,7.16a33.61,33.61,0,0,1-12.34,2.4,31.42,31.42,0,0,1-5.72-.52c-8.93-1.67-14.49-6.75-17.73-9.73a44.76,44.76,0,0,1-10.75-15A100.15,100.15,0,0,1,8.54,193a98.18,98.18,0,0,1,4.08-13.63Q22.45,184.56,33.25,189.71Z"/></g></g></svg>